<svg width="280" height="60" viewBox="0 0 280 60" xmlns="http://www.w3.org/2000/svg">
  <style>
    .logo-text {
      font-family: 'Inter', -apple-system, BlinkMacSystemFont, "Segoe UI", Roboto, Helvetica, Arial, sans-serif;
      font-size: 28px;
      font-weight: 600;
      fill: var(--header-text-color, #2c3e50);
      dominant-baseline: central;
    }
    .palette {
      fill: #D2B48C; /* tan */
      stroke: #A1887F; /* brown-grey */
      stroke-width: 1;
    }
    .paw {
      fill: #795548; /* brown */
    }
    .hole {
      fill: var(--background-color, #FFFFFF);
      stroke: #A1887F;
      stroke-width: 1;
    }
  </style>
  <g class="logo-icon" transform="translate(2, 2)">
    <!-- Palette Shape -->
    <path class="palette" d="M47.9,5.1C38.2-2.4,24.4-1.5,15.7,7.2C7,15.9,6.2,29.9,13.6,39.2c-2.5,2.3-4.1,5.6-4.1,9.2c0,6.5,5.3,11.8,11.8,11.8 c3.6,0,6.9-1.6,9.2-4.1c9.3,7.4,23.4,6.6,32.1-2.1C71.1,45.5,71.9,31.5,64.5,22.2C59.7,15.5,53.7,9.8,47.9,5.1z"/>
    <!-- Thumb Hole -->
    <circle class="hole" cx="21.5" cy="45.5" r="4.5"/>
    <!-- Paw Print -->
    <g class="paw" transform="translate(35, 16) scale(0.7)">
        <path d="M12.5,13.3c-2.8,0-5,2.2-5,5s2.2,5,5,5s5-2.2,5-5S15.3,13.3,12.5,13.3z"/>
        <circle cx="6" cy="8" r="3"/>
        <circle cx="12.5" cy="5" r="3"/>
        <circle cx="19" cy="8" r="3"/>
    </g>
  </g>
  <text x="78" y="30" class="logo-text">ぶいえぬパレット</text>
</svg>
